# xmcd
#
# Track frame offsets:
#	150
#	11109
#	18987
#	27625
#	38643
#	47631
#	56731
#	66967
#	78584
#	86634
#
# Disc length: 1294 seconds
#
# Revision: 0
# Processed by: cddbd v1.5PL3 Copyright (c) Steve Scherf et al.
# Submitted via: dBpowerAMP V4.0
#
DISCID=80050c0a
DTITLE=Roger Miller - Hall Of Fame,Inducted 1995
DYEAR=1900
DGENRE=Country
TTITLE0=King Of The Road
TTITLE1=Dang Me
TTITLE2=England Swings
TTITLE3=Husbands And Wifes
TTITLE4=My Uncle Use To Love Me But...
TTITLE5=Chug-A-Lug
TTITLE6=Engine Engine #9 
TTITLE7=Walking In The Sunshine
TTITLE8=Do-Wacka- Do
TTITLE9=When Two Worlds Collide
EXTD=
EXTT0=
EXTT1=
EXTT2=
EXTT3=
EXTT4=
EXTT5=
EXTT6=
EXTT7=
EXTT8=
EXTT9=
PLAYORDER=
